<svg width="68" height="67" viewBox="0 0 68 67" fill="none" xmlns="http://www.w3.org/2000/svg">
<g clip-path="url(#clip0_30_139)">
<path d="M17.25 67C17.25 67 13.0625 67 13.0625 62.8125C13.0625 58.625 17.25 46.0625 34 46.0625C50.75 46.0625 54.9375 58.625 54.9375 62.8125C54.9375 67 50.75 67 50.75 67H17.25ZM34 42.0844C36.7765 42.0844 39.4393 40.9814 41.4025 39.0181C43.3658 37.0549 44.4688 34.3921 44.4688 31.6156C44.4688 28.8391 43.3658 26.1763 41.4025 24.2131C39.4393 22.2498 36.7765 21.1469 34 21.1469C31.2235 21.1469 28.5607 22.2498 26.5975 24.2131C24.6342 26.1763 23.5312 28.8391 23.5312 31.6156C23.5312 34.3921 24.6342 37.0549 26.5975 39.0181C28.5607 40.9814 31.2235 42.0844 34 42.0844Z" fill="#FC9A3B"/>
<path d="M8.875 4.1875C6.65381 4.1875 4.5236 5.06986 2.95298 6.64048C1.38236 8.2111 0.5 10.3413 0.5 12.5625L0.5 52.3438C0.5 54.0096 1.16177 55.6073 2.33974 56.7853C3.5177 57.9632 5.11536 58.625 6.78125 58.625H9.51569C10.3913 55.5477 11.9131 52.6925 13.9796 50.25H4.6875V12.5625C4.6875 11.4519 5.12868 10.3868 5.91399 9.60149C6.6993 8.81618 7.76441 8.375 8.875 8.375H59.125C60.2356 8.375 61.3007 8.81618 62.086 9.60149C62.8713 10.3868 63.3125 11.4519 63.3125 12.5625V50.25H54.0204C56.3403 52.9886 57.7473 55.9994 58.4843 58.625H61.2188C62.8846 58.625 64.4823 57.9632 65.6603 56.7853C66.8382 55.6073 67.5 54.0096 67.5 52.3438V12.5625C67.5 10.3413 66.6176 8.2111 65.047 6.64048C63.4764 5.06986 61.3462 4.1875 59.125 4.1875H8.875Z" fill="#FC9A3B"/>
</g>
<defs>
<clipPath id="clip0_30_139">
<rect width="67" height="67" fill="white" transform="translate(0.5)"/>
</clipPath>
</defs>
</svg>
