<svg width="62" height="56" viewBox="0 0 62 56" fill="none" xmlns="http://www.w3.org/2000/svg">
<path d="M21.9583 23.3333C21.9583 22.8692 21.7542 22.4241 21.3909 22.0959C21.0275 21.7677 20.5347 21.5833 20.0208 21.5833C19.507 21.5833 19.0142 21.7677 18.6508 22.0959C18.2875 22.4241 18.0833 22.8692 18.0833 23.3333V39.6667C18.0833 40.1308 18.2875 40.5759 18.6508 40.9041C19.0142 41.2323 19.507 41.4167 20.0208 41.4167C20.5347 41.4167 21.0275 41.2323 21.3909 40.9041C21.7542 40.5759 21.9583 40.1308 21.9583 39.6667V23.3333ZM29.7083 23.3333C29.7083 22.8692 29.5042 22.4241 29.1409 22.0959C28.7775 21.7677 28.2847 21.5833 27.7708 21.5833C27.257 21.5833 26.7642 21.7677 26.4008 22.0959C26.0375 22.4241 25.8333 22.8692 25.8333 23.3333V39.6667C25.8333 40.1308 26.0375 40.5759 26.4008 40.9041C26.7642 41.2323 27.257 41.4167 27.7708 41.4167C28.2847 41.4167 28.7775 41.2323 29.1409 40.9041C29.5042 40.5759 29.7083 40.1308 29.7083 39.6667V23.3333ZM37.4583 23.3333C37.4583 22.8692 37.2542 22.4241 36.8909 22.0959C36.5275 21.7677 36.0347 21.5833 35.5208 21.5833C35.007 21.5833 34.5142 21.7677 34.1508 22.0959C33.7875 22.4241 33.5833 22.8692 33.5833 23.3333V39.6667C33.5833 40.1308 33.7875 40.5759 34.1508 40.9041C34.5142 41.2323 35.007 41.4167 35.5208 41.4167C36.0347 41.4167 36.5275 41.2323 36.8909 40.9041C37.2542 40.5759 37.4583 40.1308 37.4583 39.6667V23.3333ZM10.3333 12.25C10.3333 10.2388 11.2179 8.30991 12.7924 6.88776C14.367 5.46561 16.5025 4.66666 18.7292 4.66666H36.8125C39.0392 4.66666 41.1747 5.46561 42.7493 6.88776C44.3238 8.30991 45.2083 10.2388 45.2083 12.25V14H48.4375C49.5401 14 50.6318 14.1961 51.6505 14.5772C52.6691 14.9583 53.5946 15.5169 54.3743 16.2211C55.1539 16.9253 55.7723 17.7613 56.1942 18.6813C56.6162 19.6014 56.8333 20.5875 56.8333 21.5833V34.4167C56.8333 35.4125 56.6162 36.3986 56.1942 37.3187C55.7723 38.2387 55.1539 39.0747 54.3743 39.7789C53.5946 40.4831 52.6691 41.0416 51.6505 41.4227C50.6318 41.8038 49.5401 42 48.4375 42H45.2083V46.0833C45.2083 47.4757 44.596 48.8111 43.5059 49.7956C42.4158 50.7802 40.9374 51.3333 39.3958 51.3333H16.1458C14.6043 51.3333 13.1258 50.7802 12.0358 49.7956C10.9457 48.8111 10.3333 47.4757 10.3333 46.0833V12.25ZM41.3333 17.5H14.2083V46.0833C14.2083 47.0493 15.0763 47.8333 16.1458 47.8333H39.3958C39.9097 47.8333 40.4025 47.6489 40.7659 47.3208C41.1292 46.9926 41.3333 46.5475 41.3333 46.0833V17.5ZM45.2083 38.5H48.4375C49.6365 38.5 50.7864 38.0698 51.6342 37.304C52.482 36.5382 52.9583 35.4996 52.9583 34.4167V21.5833C52.9583 20.5004 52.482 19.4617 51.6342 18.696C50.7864 17.9302 49.6365 17.5 48.4375 17.5H45.2083V38.5ZM41.3333 12.25C41.3333 11.167 40.857 10.1284 40.0092 9.36264C39.1614 8.59686 38.0115 8.16666 36.8125 8.16666H18.7292C17.5302 8.16666 16.3803 8.59686 15.5325 9.36264C14.6846 10.1284 14.2083 11.167 14.2083 12.25V14H41.3333V12.25Z" fill="#FC9A3B"/>
</svg>
