<svg width="72" height="74" viewBox="0 0 72 74" fill="none" xmlns="http://www.w3.org/2000/svg">
<path d="M48 24.6667C49.9891 24.6667 51.8968 23.8545 53.3033 22.4089C54.7098 20.9634 55.5 19.0027 55.5 16.9583C55.5 14.914 54.7098 12.9533 53.3033 11.5077C51.8968 10.0621 49.9891 9.25 48 9.25C46.0109 9.25 44.1032 10.0621 42.6967 11.5077C41.2902 12.9533 40.5 14.914 40.5 16.9583C40.5 19.0027 41.2902 20.9634 42.6967 22.4089C44.1032 23.8545 46.0109 24.6667 48 24.6667V24.6667Z" stroke="#FC9A3B" stroke-width="4" stroke-miterlimit="2"/>
<path d="M34.5 61.6667L46.665 58.4909C47.835 58.198 48.195 56.6563 47.295 55.8392L34.5 44.7084L40.5 32.375L24.885 26.6092C24.135 26.3317 23.535 25.7767 23.19 25.0367L16.5 12.3334" stroke="#FC9A3B" stroke-width="4" stroke-miterlimit="2" stroke-linecap="round" stroke-linejoin="round"/>
<path d="M34.5 44.7084L24.045 58.2596C23.73 58.645 23.34 58.9534 22.89 59.1384L7.5 64.75" stroke="#FC9A3B" stroke-width="4" stroke-miterlimit="2" stroke-linecap="round" stroke-linejoin="round"/>
<path d="M40.5 32.375L55.35 36.6763C56.055 36.8921 56.67 37.3546 57.06 37.9867L63 47.7917" stroke="#FC9A3B" stroke-width="4" stroke-miterlimit="2" stroke-linecap="round" stroke-linejoin="round"/>
<path d="M27 12.3333C28.1935 12.3333 29.3381 11.8461 30.182 10.9787C31.0259 10.1114 31.5 8.93497 31.5 7.70834C31.5 6.48172 31.0259 5.30533 30.182 4.43797C29.3381 3.57062 28.1935 3.08334 27 3.08334C25.8065 3.08334 24.6619 3.57062 23.818 4.43797C22.9741 5.30533 22.5 6.48172 22.5 7.70834C22.5 8.93497 22.9741 10.1114 23.818 10.9787C24.6619 11.8461 25.8065 12.3333 27 12.3333Z" fill="#FC9A3B"/>
</svg>
