<svg width="65" height="63" viewBox="0 0 65 63" fill="none" xmlns="http://www.w3.org/2000/svg">
<path d="M18.2812 13.7812C11.5781 13.7812 6.09375 19.0969 6.09375 25.5938C6.09375 29.4998 8.07828 32.9766 11.1089 35.1304C5.7525 37.7055 2.03125 43.0448 2.03125 49.2188H6.09375C6.09375 42.6746 11.5294 37.4062 18.2812 37.4062C25.0331 37.4062 30.4688 42.6746 30.4688 49.2188H34.5312C34.5312 42.6746 39.9669 37.4062 46.7188 37.4062C53.4706 37.4062 58.9062 42.6746 58.9062 49.2188H62.9688C62.9688 43.0428 59.2475 37.7055 53.8911 35.1304C55.442 34.0351 56.7044 32.6006 57.5758 30.9436C58.4472 29.2865 58.903 27.4536 58.9062 25.5938C58.9062 19.0969 53.4219 13.7812 46.7188 13.7812C40.0156 13.7812 34.5312 19.0969 34.5312 25.5938C34.5312 29.4998 36.5158 32.9766 39.5464 35.1304C36.5786 36.5446 34.1221 38.7965 32.5 41.5898C30.8779 38.7965 28.4214 36.5446 25.4536 35.1304C27.0045 34.0351 28.2669 32.6006 29.1383 30.9436C30.0097 29.2865 30.4655 27.4536 30.4688 25.5938C30.4688 19.0969 24.9844 13.7812 18.2812 13.7812ZM18.2812 17.7188C22.7967 17.7188 26.4062 21.2172 26.4062 25.5938C26.4062 29.9703 22.7967 33.4688 18.2812 33.4688C13.7658 33.4688 10.1562 29.9703 10.1562 25.5938C10.1562 21.2172 13.7658 17.7188 18.2812 17.7188ZM46.7188 17.7188C51.2342 17.7188 54.8438 21.2172 54.8438 25.5938C54.8438 29.9703 51.2342 33.4688 46.7188 33.4688C42.2033 33.4688 38.5938 29.9703 38.5938 25.5938C38.5938 21.2172 42.2033 17.7188 46.7188 17.7188Z" fill="#FC9A3B"/>
</svg>
