<svg width="80" height="80" viewBox="0 0 100 100" fill="none" xmlns="http://www.w3.org/2000/svg">
<path d="M66.6667 43.875C66.0786 43.2938 65.2851 42.9679 64.4583 42.9679C63.6315 42.9679 62.8381 43.2938 62.25 43.875L44.125 62L37.5 55.375C36.9119 54.7938 36.1185 54.4679 35.2917 54.4679C34.4649 54.4679 33.6714 54.7938 33.0833 55.375C31.875 56.5834 31.875 58.5834 33.0833 59.7917L41.1667 67.875C42.7917 69.5 45.4167 69.5 47.0417 67.875L66.625 48.2917C67.875 47.0834 67.875 45.0834 66.6667 43.875ZM79.1667 12.5H75V8.33335C75 6.04169 73.125 4.16669 70.8333 4.16669C68.5417 4.16669 66.6667 6.04169 66.6667 8.33335V12.5H33.3333V8.33335C33.3333 6.04169 31.4583 4.16669 29.1667 4.16669C26.875 4.16669 25 6.04169 25 8.33335V12.5H20.8333C16.2083 12.5 12.5417 16.25 12.5417 20.8334L12.5 79.1667C12.5 81.3768 13.378 83.4964 14.9408 85.0592C16.5036 86.622 18.6232 87.5 20.8333 87.5H79.1667C83.75 87.5 87.5 83.75 87.5 79.1667V20.8334C87.5 16.25 83.75 12.5 79.1667 12.5ZM75 79.1667H25C22.7083 79.1667 20.8333 77.2917 20.8333 75V33.3334H79.1667V75C79.1667 77.2917 77.2917 79.1667 75 79.1667Z" fill="#FC9A3B"/>
</svg>
